<svg width="1024" height="512" viewBox="0 0 1024 512" fill="none" xmlns="http://www.w3.org/2000/svg">
<path d="M158 392.647V122.501H218.6C249.628 122.501 273.754 130.41 290.978 146.228C308.328 162.047 317.003 184.154 317.003 212.549C317.003 239.388 308.835 261.431 292.497 278.675C276.287 295.92 255.58 304.542 230.378 304.542C219.233 304.542 206.885 302.014 193.334 296.957V392.647H158ZM217.84 155.564H193.334V265.645C203.972 271.22 215.117 274.008 226.768 274.008C242.979 274.008 256.213 268.238 266.472 256.698C276.857 245.158 282.049 230.312 282.049 212.16C282.049 200.491 279.579 190.183 274.64 181.237C269.828 172.29 263.179 165.807 254.694 161.787C246.335 157.638 234.051 155.564 217.84 155.564ZM391.851 122.501V163.538L393.75 160.426C410.468 132.809 427.185 119 443.902 119C456.945 119 470.56 125.742 484.746 139.227L466.509 170.345C454.477 158.676 443.331 152.841 433.075 152.841C421.928 152.841 412.241 158.287 404.007 169.178C395.903 180.069 391.851 192.971 391.851 207.881V301.43H357.086V122.501H391.851ZM657.997 215.077H535.087C535.972 232.192 541.545 245.807 551.804 255.92C562.19 266.033 575.549 271.09 591.887 271.09C614.683 271.09 635.706 263.829 654.957 249.307V283.927C644.319 291.187 633.744 296.374 623.232 299.486C612.847 302.598 600.626 304.153 586.569 304.153C567.318 304.153 551.741 300.069 539.836 291.901C527.931 283.732 518.37 272.776 511.15 259.032C504.058 245.158 500.512 229.145 500.512 210.993C500.512 183.765 508.048 161.658 523.119 144.672C538.19 127.558 557.757 119 581.82 119C604.995 119 623.485 127.298 637.289 143.895C651.093 160.491 657.997 182.727 657.997 210.604V215.077ZM535.846 193.878H623.801C622.916 179.745 618.799 168.854 611.454 161.204C604.108 153.554 594.231 149.729 581.82 149.729C569.406 149.729 559.213 153.554 551.233 161.204C543.381 168.854 538.253 179.745 535.846 193.878ZM816.24 122.501H860.502L788.505 210.604L865.63 301.43H821.368L766.467 237.249L714.606 301.43H671.103L744.622 210.604L671.103 122.501H714.606L766.467 183.959L816.24 122.501Z" fill="black"/>
</svg>
